<svg xmlns="http://www.w3.org/2000/svg" width="324" height="72" viewBox="0 0 324 72" role="img" aria-labelledby="title desc">
  <title id="title">FlowDockr logo</title>
  <desc id="desc">FlowDockr wordmark with a flowing ribbon letter F mark.</desc>
  <g transform="translate(4 4)">
    <path d="M11.2 31.8C8.1 30.5 6.6 27.6 6.8 23.1C7.1 13.8 14.8 8.4 24.3 8.4H54.8C54.5 18.4 47.4 25.9 37.8 26.2H24.8C18.2 26.2 13.8 28.1 11.2 31.8Z" fill="#8A7BFF"/>
    <path d="M7.8 23.5C8.8 14.4 16.1 9.8 24.4 9.8H52.9C51.9 14.8 49.2 19.4 45.1 22.3H23.8C17.5 22.3 12.3 22.8 7.8 23.5Z" fill="#B39DFF" opacity="0.52"/>
    <path d="M9.1 24.5C11.4 18.7 17.1 15.6 24.7 15.6H51.8C50.2 19.2 47.6 22.1 44.1 23.7H24.4C17.8 23.7 12.8 24.1 9.1 24.5Z" fill="#FFFFFF" opacity="0.22"/>
    <path d="M39.7 25.6C47.1 23.4 52.2 17.1 54.3 8.4H54.8C54.5 18.4 47.4 25.9 37.8 26.2H24.8C18.2 26.2 13.8 28.1 11.2 31.8C14.2 27.6 18.9 25.6 27.1 25.6H39.7Z" fill="#6C63FF" opacity="0.34"/>
    <path d="M14.4 44.8C16.2 36.7 23.2 31.5 32.2 31.5H51.1C49.8 39.2 43.8 44.7 35.5 44.7H14.4Z" fill="#57D0E6"/>
    <path d="M15.1 43C18 36 24.3 31.5 32.2 31.5H43.8C40.3 35.6 34.9 37.9 28.8 37.9H22.8C18.5 37.9 16 39.5 15.1 43Z" fill="#8A7BFF" opacity="0.5"/>
    <path d="M15.3 42.3C18.6 35.7 25.2 31.8 33.6 31.8H45.3C41.8 36.1 36.2 38.5 29.5 38.5H22.9C19 38.5 16.6 39.8 15.3 42.3Z" fill="#FFFFFF" opacity="0.3"/>
    <path d="M9.5 56.4V43.7C9.5 35.5 15.9 30.8 25.5 30.8H36.5C34.9 42.7 25.8 53 9.5 56.4Z" fill="#6C63FF"/>
    <path d="M9.5 56.4V44.4C9.5 39.3 11.8 35.6 16.3 33.5C18.9 38.7 17.3 47.7 9.5 56.4Z" fill="#B39DFF" opacity="0.36"/>
  </g>
  <path d="M97.68 27.28L97.68 27.28L88.83 27.28L88.83 32.95L96.23 32.95Q97.26 32.95 97.76 33.41Q98.27 33.88 98.27 34.65L98.27 34.65Q98.27 35.42 97.76 35.87Q97.24 36.33 96.23 36.33L96.23 36.33L88.83 36.33L88.83 43.64Q88.83 45.03 88.20 45.70Q87.57 46.38 86.59 46.38L86.59 46.38Q85.59 46.38 84.96 45.70Q84.33 45.02 84.33 43.64L84.33 43.64L84.33 26.56Q84.33 25.60 84.62 24.98Q84.91 24.37 85.52 24.09Q86.13 23.81 87.09 23.81L87.09 23.81L97.68 23.81Q98.76 23.81 99.28 24.29Q99.80 24.76 99.80 25.54L99.80 25.54Q99.80 26.32 99.28 26.80Q98.76 27.28 97.68 27.28ZM102.45 43.87L102.45 43.87L102.45 25.94Q102.45 24.70 103.00 24.07Q103.55 23.43 104.49 23.43L104.49 23.43Q105.43 23.43 106.01 24.06Q106.58 24.69 106.58 25.94L106.58 25.94L106.58 43.87Q106.58 45.12 106.00 45.75Q105.42 46.38 104.49 46.38L104.49 46.38Q103.58 46.38 103.02 45.73Q102.45 45.08 102.45 43.87ZM126.32 37.98L126.32 37.98Q126.32 39.82 125.75 41.38Q125.17 42.94 124.08 44.06Q122.99 45.18 121.48 45.78Q119.96 46.38 118.07 46.38L118.07 46.38Q116.19 46.38 114.70 45.77Q113.20 45.17 112.10 44.04Q111.00 42.91 110.43 41.38Q109.87 39.84 109.87 37.98L109.87 37.98Q109.87 36.10 110.44 34.54Q111.02 32.98 112.09 31.88Q113.17 30.77 114.70 30.17Q116.22 29.58 118.07 29.58L118.07 29.58Q119.95 29.58 121.48 30.18Q123.01 30.79 124.10 31.91Q125.19 33.03 125.75 34.57Q126.32 36.12 126.32 37.98ZM122.17 37.98L122.17 37.98Q122.17 35.45 121.06 34.04Q119.95 32.63 118.07 32.63L118.07 32.63Q116.86 32.63 115.94 33.26Q115.01 33.89 114.51 35.12Q114.01 36.34 114.01 37.98L114.01 37.98Q114.01 39.60 114.51 40.81Q115.00 42.02 115.91 42.66Q116.83 43.31 118.07 43.31L118.07 43.31Q119.95 43.31 121.06 41.89Q122.17 40.48 122.17 37.98ZM132.15 32.15L132.15 32.15L134.84 41.38L137.29 32.80Q137.69 31.45 137.88 30.96Q138.07 30.47 138.59 30.02Q139.11 29.58 140.02 29.58L140.02 29.58Q140.94 29.58 141.46 30.02Q141.99 30.47 142.20 30.99Q142.41 31.51 142.79 32.80L142.79 32.80L145.24 41.38L147.97 32.15Q148.24 31.15 148.40 30.70Q148.57 30.26 148.96 29.92Q149.36 29.58 150.10 29.58L150.10 29.58Q150.84 29.58 151.39 30.09Q151.93 30.61 151.93 31.30L151.93 31.30Q151.93 31.94 151.46 33.22L151.46 33.22L148.09 43.12Q147.65 44.38 147.41 44.94Q147.16 45.50 146.64 45.94Q146.12 46.38 145.21 46.38L145.21 46.38Q144.27 46.38 143.74 45.91Q143.20 45.44 142.94 44.76Q142.68 44.08 142.38 42.99L142.38 42.99L140.02 34.94L137.73 42.99Q137.28 44.67 136.75 45.52Q136.22 46.38 134.89 46.38L134.89 46.38Q134.21 46.38 133.73 46.11Q133.25 45.85 132.94 45.36Q132.62 44.86 132.38 44.19Q132.13 43.52 132.00 43.12L132.00 43.12L128.65 33.22Q128.15 31.83 128.15 31.30L128.15 31.30Q128.15 30.64 128.68 30.11Q129.21 29.58 129.98 29.58L129.98 29.58Q131.01 29.58 131.38 30.16Q131.74 30.74 132.15 32.15Z" fill="#0F172A"/>
  <path d="M161.85 23.81L161.85 23.81L167.70 23.81Q169.99 23.81 171.63 24.23Q173.26 24.66 174.59 25.82L174.59 25.82Q178.06 28.79 178.06 34.84L178.06 34.84Q178.06 36.84 177.71 38.49Q177.36 40.14 176.64 41.47Q175.91 42.79 174.77 43.84L174.77 43.84Q173.88 44.64 172.82 45.12Q171.76 45.61 170.54 45.80Q169.32 46 167.80 46L167.80 46L161.94 46Q160.71 46 160.09 45.63Q159.47 45.26 159.28 44.58Q159.09 43.91 159.09 42.84L159.09 42.84L159.09 26.56Q159.09 25.11 159.74 24.46Q160.39 23.81 161.85 23.81ZM166.55 27.37L163.59 27.37L163.59 42.43L166.99 42.43Q168.11 42.43 168.75 42.37Q169.39 42.31 170.07 42.06Q170.75 41.82 171.25 41.38L171.25 41.38Q173.50 39.48 173.50 34.81L173.50 34.81Q173.50 31.53 172.51 29.89Q171.52 28.26 170.07 27.81Q168.61 27.37 166.55 27.37L166.55 27.37ZM197.19 37.98L197.19 37.98Q197.19 39.82 196.62 41.38Q196.04 42.94 194.95 44.06Q193.86 45.18 192.35 45.78Q190.83 46.38 188.94 46.38L188.94 46.38Q187.06 46.38 185.57 45.77Q184.07 45.17 182.97 44.04Q181.87 42.91 181.31 41.38Q180.74 39.84 180.74 37.98L180.74 37.98Q180.74 36.10 181.31 34.54Q181.89 32.98 182.96 31.88Q184.04 30.77 185.57 30.17Q187.10 29.58 188.94 29.58L188.94 29.58Q190.82 29.58 192.35 30.18Q193.88 30.79 194.97 31.91Q196.06 33.03 196.62 34.57Q197.19 36.12 197.19 37.98ZM193.04 37.98L193.04 37.98Q193.04 35.45 191.93 34.04Q190.82 32.63 188.94 32.63L188.94 32.63Q187.73 32.63 186.81 33.26Q185.88 33.89 185.38 35.12Q184.89 36.34 184.89 37.98L184.89 37.98Q184.89 39.60 185.38 40.81Q185.87 42.02 186.78 42.66Q187.70 43.31 188.94 43.31L188.94 43.31Q190.82 43.31 191.93 41.89Q193.04 40.48 193.04 37.98ZM215.26 41.26L215.26 41.26Q215.26 42.03 214.80 42.91Q214.34 43.79 213.40 44.58Q212.45 45.38 211.01 45.86Q209.57 46.35 207.77 46.35L207.77 46.35Q203.94 46.35 201.79 44.12Q199.64 41.88 199.64 38.13L199.64 38.13Q199.64 35.59 200.63 33.63Q201.61 31.68 203.47 30.61Q205.33 29.55 207.92 29.55L207.92 29.55Q209.53 29.55 210.87 30.02Q212.21 30.48 213.14 31.23Q214.07 31.97 214.56 32.81Q215.05 33.65 215.05 34.38L215.05 34.38Q215.05 35.12 214.50 35.63Q213.95 36.15 213.16 36.15L213.16 36.15Q212.65 36.15 212.31 35.88Q211.96 35.62 211.54 35.03L211.54 35.03Q210.78 33.88 209.96 33.30Q209.13 32.73 207.86 32.73L207.86 32.73Q206.03 32.73 204.91 34.16Q203.79 35.59 203.79 38.07L203.79 38.07Q203.79 39.23 204.08 40.21Q204.37 41.19 204.91 41.88Q205.46 42.56 206.23 42.92Q207.00 43.28 207.92 43.28L207.92 43.28Q209.16 43.28 210.05 42.70Q210.94 42.13 211.62 40.94L211.62 40.94Q211.99 40.25 212.43 39.85Q212.87 39.46 213.51 39.46L213.51 39.46Q214.27 39.46 214.76 40.04Q215.26 40.61 215.26 41.26ZM227.98 44.49L227.98 44.49L224.33 38.49L222.09 40.61L222.09 43.90Q222.09 45.09 221.46 45.74Q220.83 46.38 220.02 46.38L220.02 46.38Q219.06 46.38 218.52 45.74Q217.97 45.11 217.97 43.87L217.97 43.87L217.97 26.25Q217.97 24.87 218.50 24.15Q219.03 23.43 220.02 23.43L220.02 23.43Q220.97 23.43 221.53 24.08Q222.09 24.73 222.09 26.00L222.09 26.00L222.09 36.02L226.74 31.15Q227.60 30.24 228.06 29.91Q228.51 29.58 229.16 29.58L229.16 29.58Q229.93 29.58 230.45 30.07Q230.96 30.56 230.96 31.30L230.96 31.30Q230.96 32.21 229.28 33.72L229.28 33.72L227.09 35.74L231.32 42.40Q231.79 43.14 232.00 43.53Q232.20 43.91 232.20 44.26L232.20 44.26Q232.20 45.24 231.67 45.81Q231.13 46.38 230.25 46.38L230.25 46.38Q229.49 46.38 229.08 45.97Q228.68 45.56 227.98 44.49ZM239.56 40.41L239.56 40.41L239.56 43.87Q239.56 45.12 238.97 45.75Q238.38 46.38 237.47 46.38L237.47 46.38Q236.58 46.38 236.00 45.74Q235.43 45.11 235.43 43.87L235.43 43.87L235.43 32.36Q235.43 29.58 237.44 29.58L237.44 29.58Q238.47 29.58 238.92 30.23Q239.38 30.88 239.42 32.15L239.42 32.15Q240.16 30.88 240.94 30.23Q241.72 29.58 243.03 29.58L243.03 29.58Q244.33 29.58 245.55 30.23Q246.78 30.88 246.78 31.95L246.78 31.95Q246.78 32.71 246.26 33.20Q245.73 33.69 245.13 33.69L245.13 33.69Q244.90 33.69 244.03 33.41Q243.16 33.13 242.50 33.13L242.50 33.13Q241.59 33.13 241.01 33.61Q240.44 34.09 240.12 35.03Q239.80 35.96 239.68 37.26Q239.56 38.55 239.56 40.41Z" fill="#6C63FF"/>
</svg>
